<svg width="562" height="550" viewBox="0 0 562 550" fill="none" xmlns="http://www.w3.org/2000/svg">
<circle cx="284" cy="284" r="49" fill="#581C77"/>
<circle cx="392.5" cy="230.5" r="48.5" fill="#A9422C"/>
<circle cx="492.5" cy="175.5" r="48.5" fill="#C6593E"/>
<circle cx="526.5" cy="282.5" r="35.5" fill="#471362"/>
<circle cx="393.5" cy="357.5" r="35.5" fill="#581C77"/>
<circle cx="290.5" cy="413.5" r="31.5" fill="#581C77"/>
<circle cx="500.5" cy="410.5" r="31.5" fill="#471362"/>
<ellipse cx="404" cy="499.5" rx="26" ry="25.5" fill="#471362"/>
<circle cx="293" cy="528" r="22" fill="#370A4E"/>
<circle cx="404" cy="82" r="49" fill="#C6593E"/>
<ellipse cx="180.5" cy="349" rx="48.5" ry="49" fill="#A9422C"/>
<ellipse cx="173.5" cy="492" rx="48.5" ry="49" fill="#C6593E"/>
<circle cx="85" cy="410" r="49" fill="#C6593E"/>
<circle cx="284" cy="166" r="49" fill="#DC7458"/>
<circle cx="284" cy="49" r="49" fill="#F9987B"/>
<circle cx="167" cy="80" r="49" fill="#F9987B"/>
<ellipse cx="77" cy="171.5" rx="49" ry="48.5" fill="#F9987B"/>
<circle cx="49" cy="297" r="49" fill="#DC7458"/>
<ellipse cx="182" cy="230.5" rx="49" ry="48.5" fill="#DC7458"/>
</svg>
