<?xml version="1.0" standalone="no"?>
<!DOCTYPE svg PUBLIC "-//W3C//DTD SVG 20010904//EN"
 "http://www.w3.org/TR/2001/REC-SVG-20010904/DTD/svg10.dtd">
<svg version="1.0" xmlns="http://www.w3.org/2000/svg"
 width="562.000000pt" height="562.000000pt" viewBox="0 0 562.000000 562.000000"
 preserveAspectRatio="xMidYMid meet">
<metadata>
Created by potrace 1.11, written by Peter Selinger 2001-2013
</metadata>
<g transform="translate(0.000000,562.000000) scale(0.100000,-0.100000)"
fill="#000000" stroke="none">
<path d="M2724 5547 c-216 -56 -360 -234 -370 -457 -9 -217 120 -409 324 -481
69 -25 176 -32 256 -18 180 32 333 178 382 364 17 63 12 206 -9 266 -52 145
-157 254 -299 309 -68 27 -212 35 -284 17z"/>
<path d="M1577 5244 c-3 -3 -17 -7 -33 -10 -58 -11 -158 -70 -219 -129 -103
-103 -152 -236 -141 -384 11 -150 79 -269 204 -358 196 -141 459 -117 631 57
97 97 140 212 136 357 -3 135 -51 244 -149 337 -95 91 -189 128 -328 132 -53
1 -99 0 -101 -2z"/>
<path d="M3913 5215 c-112 -35 -198 -94 -264 -183 -38 -50 -85 -142 -72 -142
3 0 -1 -7 -8 -16 -19 -23 -19 -227 0 -274 60 -151 144 -248 264 -304 178 -83
401 -46 542 89 107 103 148 200 149 355 0 111 -10 154 -63 250 -26 46 -149
175 -159 165 -3 -3 -12 1 -21 9 -9 8 -41 24 -71 36 -67 27 -231 35 -297 15z"/>
<path d="M2730 4377 c-82 -19 -166 -65 -230 -127 -99 -97 -140 -190 -145 -330
-3 -77 0 -108 17 -160 55 -167 176 -287 338 -333 64 -19 229 -14 285 8 79 31
129 62 183 113 251 241 178 655 -143 800 -27 12 -61 25 -75 28 -55 12 -178 13
-230 1z"/>
<path d="M649 4315 c-338 -90 -477 -485 -269 -761 22 -29 57 -65 77 -81 21
-15 40 -30 43 -33 37 -37 169 -76 262 -77 138 -2 252 44 353 142 122 120 169
282 131 448 -40 172 -171 307 -347 360 -56 17 -190 18 -250 2z"/>
<path d="M4816 4279 c-142 -33 -279 -149 -336 -285 -137 -330 110 -686 464
-669 100 4 101 5 204 52 106 48 211 181 249 313 10 34 11 179 2 220 -30 136
-136 269 -262 329 -37 18 -77 35 -90 38 -41 9 -192 11 -231 2z"/>
<path d="M1717 3729 c-153 -30 -291 -147 -353 -299 -22 -52 -27 -82 -28 -155
-1 -117 5 -147 44 -231 42 -88 131 -177 220 -221 83 -41 114 -47 230 -47 74 0
108 5 154 22 207 79 330 260 322 476 -11 300 -287 513 -589 455z"/>
<path d="M3795 3721 c-91 -26 -143 -58 -210 -125 -102 -101 -146 -218 -141
-365 5 -104 30 -177 90 -258 93 -127 211 -190 371 -200 142 -8 277 48 376 155
51 55 106 156 117 213 8 45 8 186 -1 224 -30 127 -130 260 -239 316 -109 56
-254 72 -363 40z"/>
<path d="M2740 3200 c-81 -17 -158 -57 -233 -120 -38 -32 -96 -118 -122 -180
-32 -77 -41 -219 -20 -299 68 -261 336 -422 589 -356 128 34 246 120 308 227
59 99 81 266 50 379 -44 167 -199 312 -370 348 -58 12 -148 13 -202 1z"/>
<path d="M5185 3081 c-90 -23 -187 -94 -228 -168 -53 -96 -59 -233 -13 -326
53 -108 134 -171 256 -198 43 -9 82 -14 85 -11 3 3 21 7 40 9 94 7 217 103
264 203 20 45 25 71 25 145 1 78 -3 97 -26 145 -45 93 -118 156 -228 197 -31
12 -135 14 -175 4z"/>
<path d="M420 3077 c-3 -3 -18 -7 -35 -10 -49 -8 -142 -47 -178 -75 -45 -35
-127 -123 -127 -137 0 -8 -3 -15 -8 -15 -10 0 -41 -73 -57 -133 -17 -61 -16
-188 2 -247 17 -57 51 -127 77 -159 107 -131 224 -191 379 -196 148 -5 261 39
362 141 67 68 107 137 133 234 11 41 9 180 -4 228 -47 178 -187 317 -359 357
-51 12 -177 20 -185 12z"/>
<path d="M1650 2533 c-195 -71 -315 -232 -327 -436 -9 -176 70 -339 212 -432
91 -60 142 -76 259 -80 136 -5 247 38 345 133 62 60 95 113 126 204 20 60 24
89 21 163 -6 189 -103 342 -270 424 -84 41 -92 43 -206 46 -79 2 -106 -2 -160
-22z"/>
<path d="M3790 2307 c-79 -38 -138 -95 -176 -173 -26 -52 -29 -70 -29 -149 0
-77 4 -98 27 -146 35 -73 103 -140 175 -175 46 -22 75 -28 137 -31 43 -1 84 1
90 5 6 3 16 7 21 7 6 0 31 11 58 23 64 32 128 98 163 169 26 51 29 68 29 148
-1 78 -5 98 -30 149 -35 74 -103 141 -174 174 -43 20 -74 26 -140 28 -78 2
-92 -1 -151 -29z"/>
<path d="M730 1935 c-78 -21 -157 -65 -214 -118 -31 -29 -56 -58 -56 -64 0 -7
-4 -13 -8 -13 -14 0 -64 -107 -80 -170 -14 -57 -7 -214 13 -265 49 -128 138
-229 248 -283 80 -39 101 -44 202 -47 142 -5 258 40 359 140 267 265 149 709
-218 819 -53 16 -189 17 -246 1z"/>
<path d="M4912 1756 c-57 -19 -89 -40 -139 -92 -57 -60 -82 -130 -79 -219 3
-86 27 -145 87 -206 66 -68 126 -94 224 -94 68 0 89 4 137 29 66 33 121 89
151 155 30 64 30 188 1 251 -51 110 -155 181 -273 186 -38 2 -84 -2 -109 -10z"/>
<path d="M2820 1729 c-19 -6 -39 -15 -44 -20 -6 -5 -16 -9 -24 -9 -24 0 -98
-79 -127 -135 -77 -153 -15 -341 140 -420 51 -26 69 -30 139 -30 89 1 145 20
203 69 41 34 93 111 93 136 0 10 4 21 9 24 5 3 8 41 7 84 -3 130 -71 234 -183
284 -52 23 -163 32 -213 17z"/>
<path d="M1605 1111 c-99 -29 -137 -52 -222 -139 -57 -58 -105 -147 -122 -228
-21 -105 -1 -251 48 -339 59 -108 194 -214 306 -241 54 -13 197 -11 243 2 87
27 151 65 214 126 106 105 156 237 144 383 -7 95 -20 136 -77 235 -38 67 -187
183 -254 197 -5 1 -21 5 -35 8 -58 16 -185 13 -245 -4z"/>
<path d="M3957 806 c-223 -82 -237 -374 -23 -472 41 -18 65 -23 116 -20 147 6
253 118 246 260 -4 98 -53 174 -140 218 -50 26 -148 33 -199 14z"/>
<path d="M2844 481 c-112 -51 -163 -178 -115 -286 88 -198 369 -167 416 46 18
81 -31 186 -106 228 -56 32 -140 37 -195 12z"/>
</g>
</svg>
